<svg xmlns="http://www.w3.org/2000/svg" width="20" height="20" viewBox="0 0 15 18">
  <path fill="#555D66" fill-rule="evenodd" d="M14.783 1.585A17.315 17.315 0 0 0 7.503 0C4.96 0 2.509.534.217 1.587l-.217.1 1.8 3.902 1.22.56c-.201.08-.398.164-.589.253l-.216.1 1.571 3.416.211-.061c.602-.178 1.216.042 1.636.321a7.532 7.532 0 0 0-1.26.446l-.216.101L7.503 18l3.346-7.282-.217-.1a7.368 7.368 0 0 0-1.168-.421 5.222 5.222 0 0 0-.054-.895 8.229 8.229 0 0 1 1.565.534l.231.107 1.58-3.441-.216-.1a11.777 11.777 0 0 0-2.091-.733l-2.684-1.23.242.008a12.86 12.86 0 0 1 4.874 1.174l.232.107L15 1.684l-.217-.099zm-6.478 9.723c.25.033.497.081.738.143l-1.54 3.352-1.54-3.348a6.203 6.203 0 0 1 2.342-.147zm.463-3.465a9.673 9.673 0 0 0-4.28.404l-.486-1.055a10.68 10.68 0 0 1 3.945-.571c1.044.043 2.069.236 3.051.574l-.479 1.045a9.733 9.733 0 0 0-1.751-.397zm-.675-4.714a14.138 14.138 0 0 0-5.558.873l-.753-1.638a16.255 16.255 0 0 1 11.437-.002l-.755 1.643a14.191 14.191 0 0 0-4.371-.876z"/>
</svg>
