<svg xmlns="http://www.w3.org/2000/svg" viewBox="0 0 160 160" width="160" height="160">
  <defs>
    <linearGradient id="blueGrad" x1="0%" y1="0%" x2="100%" y2="100%">
      <stop offset="0%" stop-color="#2130b7" />
      <stop offset="100%" stop-color="#4c12a4" />
    </linearGradient>
    <linearGradient id="pastelGrad" x1="0%" y1="0%" x2="100%" y2="100%">
      <stop offset="0%" stop-color="#ffffff" />
      <stop offset="100%" stop-color="#e2e4ff" />
    </linearGradient>
    <linearGradient id="cyanGrad" x1="0%" y1="0%" x2="100%" y2="100%">
      <stop offset="0%" stop-color="#00f0ff" />
      <stop offset="100%" stop-color="#0052d4" />
    </linearGradient>
    <linearGradient id="glassGrad" x1="0%" y1="0%" x2="100%" y2="100%">
      <stop offset="0%" stop-color="#ffffff" stop-opacity="0.7" />
      <stop offset="100%" stop-color="#00f0ff" stop-opacity="0.1" />
    </linearGradient>
    <filter id="svgBlur" x="-30%" y="-30%" width="160%" height="160%">
      <feGaussianBlur stdDeviation="3.5"/>
    </filter>
    <filter id="shadow" x="-30%" y="-30%" width="160%" height="160%">
      <feDropShadow dx="0" dy="6" stdDeviation="4" flood-color="#192a7a" flood-opacity="0.2"/>
    </filter>
    <filter id="neonGlow" x="-30%" y="-30%" width="160%" height="160%">
      <feGaussianBlur stdDeviation="1.5" result="blur"/>
      <feComposite in="SourceGraphic" in2="blur" operator="over"/>
    </filter>
  </defs>
  <ellipse cx="80" cy="128" rx="42" ry="10" fill="#000000" opacity="0.08" filter="url(#svgBlur)"/>
  <g opacity="0.18">
    <path d="M 80,84 L 50,40 L 65,30 Z" fill="#00f0ff"/>
    <path d="M 80,84 L 110,40 L 95,30 Z" fill="#00f0ff"/>
    <path d="M 80,84 L 30,75 L 35,60 Z" fill="#00f0ff"/>
    <path d="M 80,84 L 130,75 L 125,60 Z" fill="#00f0ff"/>
  </g>
  <g filter="url(#shadow)">
    <path d="M 80,124 L 122,104 L 80,84 L 38,104 Z" fill="url(#pastelGrad)" stroke="#85a7e6" stroke-width="1.2"/>
    <path d="M 80,124 L 122,104 L 122,108 L 80,128 Z" fill="#b9beed"/>
    <path d="M 38,104 L 80,124 L 80,128 L 38,108 Z" fill="#cfd3f5"/>
    <path d="M 80,125 L 120,104 L 80,85 L 40,104 Z" fill="none" stroke="#00f0ff" stroke-width="0.8" opacity="0.6"/>
  </g>
  <g transform="translate(0, -6)" filter="url(#shadow)">
    <path d="M 72,110 L 88,103 L 88,105 L 72,112 Z" fill="#b9beed"/>
    <path d="M 76,108 L 76,96 L 84,92 L 84,104 Z" fill="#2130b7"/>
    <path d="M 76,108 L 80,105 L 80,94 L 76,96 Z" fill="#ffffff" opacity="0.6"/>
    <path d="M 58,97 L 102,77 L 102,39 L 58,59 Z" fill="#0e1545" stroke="#00f0ff" stroke-width="0.8" filter="url(#neonGlow)"/>
    <path d="M 60,94 L 100,74 L 100,42 L 60,62 Z" fill="url(#cyanGrad)"/>
    <path d="M 64,74 L 88,63" stroke="#ffffff" stroke-width="2" stroke-linecap="round"/>
    <path d="M 64,80 L 78,73.5" stroke="#ffffff" stroke-width="1.5" stroke-linecap="round"/>
    <path d="M 64,86 L 72,82" stroke="#ffffff" stroke-width="1.5" stroke-linecap="round"/>
    <path d="M 78,75 L 86,64 L 95,68" fill="none" stroke="#ffffff" stroke-width="2" stroke-linecap="round"/>
    <circle cx="86" cy="64" r="1.5" fill="#ffffff"/>
    <circle cx="95" cy="68" r="1.5" fill="#00f0ff" filter="url(#neonGlow)"/>
  </g>
  <g transform="translate(18, -10)" filter="url(#shadow)">
    <path d="M 74,108 L 92,100 L 92,76 L 74,84 Z" fill="url(#glassGrad)" stroke="#ffffff" stroke-width="1.5"/>
    <path d="M 78,99 L 88,94" stroke="#2130b7" stroke-width="1.8" stroke-linecap="round"/>
    <circle cx="83" cy="88" r="3" fill="none" stroke="#2130b7" stroke-width="1.5"/>
    <path d="M 75,103 L 91,95" stroke="#ffffff" stroke-width="1" opacity="0.6"/>
    <path d="M 92,112 L 102,107 L 102,91 L 92,96 Z" fill="#ffffff" stroke="#2130b7" stroke-width="1.5"/>
    <circle cx="97" cy="101.5" r="1.5" fill="#00f0ff" filter="url(#neonGlow)"/>
  </g>
  <g transform="translate(0, -5)" filter="url(#neonGlow)">
    <path d="M 46,45 L 48,45 L 48,43 L 48,45 L 50,45 L 48,45 L 48,47 Z" fill="#00f0ff" stroke="#00f0ff" stroke-width="0.5"/>
    <circle cx="124" cy="74" r="2.5" fill="#00f0ff"/>
    <circle cx="120" cy="54" r="1.2" fill="#ffffff"/>
  </g>
</svg>